<?xml version="1.0" encoding="UTF-8"?>
<svg xmlns="http://www.w3.org/2000/svg" xmlns:xlink="http://www.w3.org/1999/xlink" version="1.1" viewBox="0 0 256 256">
  <defs>
    <style>
      .cls-1 {
        fill: none;
      }

      .cls-2 {
        fill: #475569;
      }

      .cls-3 {
        fill: #334155;
      }

      .cls-4 {
        fill: url(#_未命名的渐变);
      }

      .cls-5 {
        fill: #fdba74;
      }

      .cls-6 {
        fill: #dcdddd;
      }

      .cls-7 {
        clip-path: url(#clippath);
      }
    </style>
    <clipPath id="clippath">
      <path class="cls-1" d="M233.4,144.7c0,59.2-48,107.2-107.3,107.2S18.9,203.9,18.9,144.7c0-21.2-8.1-129.7,27.1-135.7C85.6,2.2,196.3,1.1,227.8,13.5c18.8,7.4,5.7,117,5.7,131.2h0Z"/>
    </clipPath>
    <linearGradient id="_未命名的渐变" data-name="未命名的渐变" x1="89.5" y1="-817.6" x2="162.9" y2="-615.8" gradientTransform="translate(0 -572) scale(1 -1)" gradientUnits="userSpaceOnUse">
      <stop offset="0" stop-color="#0078d7"/>
      <stop offset="1" stop-color="#e1f2ff"/>
    </linearGradient>
  </defs>
  <!-- Generator: Adobe Illustrator 28.6.0, SVG Export Plug-In . SVG Version: 1.2.0 Build 709)  -->
  <g>
    <g id="_图层_1" data-name="图层_1">
      <g id="_图层_1-2" data-name="_图层_1">
        <g id="_图层_1-2">
          <g id="_图层_2">
            <g id="_图层_2-2">
              <g class="cls-7">
                <g>
                  <circle class="cls-4" cx="126.2" cy="144.7" r="107.3"/>
                  <path class="cls-6" d="M197.8,61.1c-4.6,18.1,7.9,41.4.8,72.6-7.2,31.2-13.5,24.1-20.4,50.8s16,33.1,9.2,61.1c-26.9,18-51.1,13.5-75.1,9.4s-40.8-11-51.9-18.7-15.5-11.3-18.3-25.6C84.8,124.5,131.7,54.7,197.8,61.1Z"/>
                  <path class="cls-2" d="M101.5,190.3c-16.5,9.6-36.6,16.2-59.4,20.5-4.3-21.6-7-52.1,6.3-69.3,22-28.6,25.8-18.7,42-40.3,16.2-21.6,4.6-45.3,13.8-66.5,10.1-23.3,30.9-29.2,51.4-23.9s21.1,15.7,40.1,18.8l6.5,23.8c-2.1,2.1-3.7,4.8-4.4,7.7-21.8-2.1-36.3,6.4-44.9,23.2-3.4,42.4-16.6,79.9-51.4,105.9h0Z"/>
                  <path class="cls-3" d="M152.9,84.3c2.6,52.2-16.6,85.7-51.4,105.9,23.1-26.9,8.4-60.8,15.4-79.5s22.6-24.1,36-26.4Z"/>
                  <path class="cls-5" d="M202.2,53.4c9.4-9.3,27.6-3.4,29-7s-21-14.4-35.5-16.8c-3.2,9.5-1.1,17.4,6.5,23.8Z"/>
                </g>
              </g>
            </g>
          </g>
        </g>
      </g>
    </g>
    <metadata>
      <sfw xmlns="http://ns.adobe.com/SaveForWeb/1.0/">
        <slices/>
        <sliceSourceBounds x="-0.02" y="-6.69" width="219.85" height="254.7" bottomLeftOrigin="true"/>
      </sfw>
    </metadata>
  </g>
</svg>